<mxfile host="app.diagrams.net" modified="2024-03-25T19:16:38.955Z" agent="Mozilla/5.0 (Windows NT 10.0; Win64; x64) AppleWebKit/537.36 (KHTML, like Gecko) Chrome/122.0.0.0 Safari/537.36" etag="XA77m9T5HdLnsrFMloFA" version="24.0.1" type="device" pages="7">
  <diagram name="Stránka-1" id="-ATShc4YuVJOPB07bB1N">
    <mxGraphModel dx="1050" dy="565" grid="1" gridSize="10" guides="1" tooltips="1" connect="1" arrows="1" fold="1" page="1" pageScale="1" pageWidth="1654" pageHeight="1169" math="0" shadow="0">
      <root>
        <mxCell id="0" />
        <mxCell id="1" parent="0" />
        <mxCell id="6TRLX3-_seIyefuNLIAM-19" value="Optical source" style="rounded=0;whiteSpace=wrap;html=1;" parent="1" vertex="1">
          <mxGeometry x="170" y="130" width="80" height="40" as="geometry" />
        </mxCell>
        <mxCell id="6TRLX3-_seIyefuNLIAM-20" value="Modulator" style="rounded=0;whiteSpace=wrap;html=1;" parent="1" vertex="1">
          <mxGeometry x="290" y="130" width="80" height="40" as="geometry" />
        </mxCell>
        <mxCell id="6TRLX3-_seIyefuNLIAM-21" value="Channel" style="rounded=0;whiteSpace=wrap;html=1;" parent="1" vertex="1">
          <mxGeometry x="410" y="130" width="80" height="40" as="geometry" />
        </mxCell>
        <mxCell id="6TRLX3-_seIyefuNLIAM-22" value="Pre amplifier" style="rounded=0;whiteSpace=wrap;html=1;" parent="1" vertex="1">
          <mxGeometry x="530" y="130" width="80" height="40" as="geometry" />
        </mxCell>
        <mxCell id="6TRLX3-_seIyefuNLIAM-23" value="Receiver" style="rounded=0;whiteSpace=wrap;html=1;" parent="1" vertex="1">
          <mxGeometry x="650" y="130" width="80" height="40" as="geometry" />
        </mxCell>
        <mxCell id="6TRLX3-_seIyefuNLIAM-24" value="mzm&lt;br&gt;iqm&lt;br&gt;pm" style="text;html=1;strokeColor=none;fillColor=none;align=center;verticalAlign=middle;whiteSpace=wrap;rounded=0;" parent="1" vertex="1">
          <mxGeometry x="300" y="190" width="60" height="30" as="geometry" />
        </mxCell>
        <mxCell id="6TRLX3-_seIyefuNLIAM-25" value="Yes / no" style="text;html=1;strokeColor=none;fillColor=none;align=center;verticalAlign=middle;whiteSpace=wrap;rounded=0;" parent="1" vertex="1">
          <mxGeometry x="540" y="190" width="60" height="30" as="geometry" />
        </mxCell>
        <mxCell id="6TRLX3-_seIyefuNLIAM-26" value="diode&lt;br&gt;coherent&lt;br&gt;hybrid" style="text;html=1;strokeColor=none;fillColor=none;align=center;verticalAlign=middle;whiteSpace=wrap;rounded=0;" parent="1" vertex="1">
          <mxGeometry x="660" y="190" width="60" height="30" as="geometry" />
        </mxCell>
        <mxCell id="6TRLX3-_seIyefuNLIAM-27" value="Params&lt;br&gt;&lt;br&gt;power&lt;br&gt;linewidth&lt;br&gt;RIN noise" style="text;html=1;strokeColor=none;fillColor=none;align=center;verticalAlign=middle;whiteSpace=wrap;rounded=0;" parent="1" vertex="1">
          <mxGeometry x="180" y="310" width="60" height="30" as="geometry" />
        </mxCell>
        <mxCell id="6TRLX3-_seIyefuNLIAM-28" value="Params" style="text;html=1;strokeColor=none;fillColor=none;align=center;verticalAlign=middle;whiteSpace=wrap;rounded=0;" parent="1" vertex="1">
          <mxGeometry x="300" y="310" width="60" height="30" as="geometry" />
        </mxCell>
        <mxCell id="6TRLX3-_seIyefuNLIAM-29" value="Params&lt;br&gt;&lt;br&gt;length&lt;br&gt;attenuation&lt;br&gt;dispersion&lt;br&gt;carrier frequency" style="text;html=1;strokeColor=none;fillColor=none;align=center;verticalAlign=middle;whiteSpace=wrap;rounded=0;" parent="1" vertex="1">
          <mxGeometry x="420" y="310" width="60" height="30" as="geometry" />
        </mxCell>
        <mxCell id="6TRLX3-_seIyefuNLIAM-30" value="Params&lt;br&gt;&lt;br&gt;gain&lt;br&gt;noise&lt;br&gt;central frequency" style="text;html=1;strokeColor=none;fillColor=none;align=center;verticalAlign=middle;whiteSpace=wrap;rounded=0;" parent="1" vertex="1">
          <mxGeometry x="505" y="310" width="130" height="30" as="geometry" />
        </mxCell>
        <mxCell id="6TRLX3-_seIyefuNLIAM-31" value="Params" style="text;html=1;strokeColor=none;fillColor=none;align=center;verticalAlign=middle;whiteSpace=wrap;rounded=0;" parent="1" vertex="1">
          <mxGeometry x="660" y="310" width="60" height="30" as="geometry" />
        </mxCell>
        <mxCell id="6TRLX3-_seIyefuNLIAM-32" value="frequency" style="text;html=1;strokeColor=none;fillColor=none;align=center;verticalAlign=middle;whiteSpace=wrap;rounded=0;" parent="1" vertex="1">
          <mxGeometry x="110" y="310" width="60" height="30" as="geometry" />
        </mxCell>
        <mxCell id="6TRLX3-_seIyefuNLIAM-33" value="Scheme" style="rounded=0;whiteSpace=wrap;html=1;" parent="1" vertex="1">
          <mxGeometry x="130" y="520" width="90" height="50" as="geometry" />
        </mxCell>
        <mxCell id="6TRLX3-_seIyefuNLIAM-34" value="General" style="rounded=0;whiteSpace=wrap;html=1;" parent="1" vertex="1">
          <mxGeometry x="130" y="580" width="90" height="50" as="geometry" />
        </mxCell>
        <mxCell id="6TRLX3-_seIyefuNLIAM-35" value="Outputs" style="rounded=0;whiteSpace=wrap;html=1;" parent="1" vertex="1">
          <mxGeometry x="130" y="640" width="90" height="50" as="geometry" />
        </mxCell>
        <mxCell id="6TRLX3-_seIyefuNLIAM-36" value="Simulate" style="rounded=0;whiteSpace=wrap;html=1;" parent="1" vertex="1">
          <mxGeometry x="150" y="700" width="50" height="30" as="geometry" />
        </mxCell>
      </root>
    </mxGraphModel>
  </diagram>
  <diagram id="LeTPsgQp5gXD2nr-aAlf" name="Stránka-2">
    <mxGraphModel dx="1050" dy="565" grid="1" gridSize="10" guides="1" tooltips="1" connect="1" arrows="1" fold="1" page="1" pageScale="1" pageWidth="1654" pageHeight="1169" math="0" shadow="0">
      <root>
        <mxCell id="0" />
        <mxCell id="1" parent="0" />
        <mxCell id="nFB2l3n1pYC1xVAgFxaD-20" style="edgeStyle=orthogonalEdgeStyle;rounded=0;orthogonalLoop=1;jettySize=auto;html=1;exitX=0.5;exitY=1;exitDx=0;exitDy=0;entryX=0;entryY=0.5;entryDx=0;entryDy=0;" parent="1" source="ebzc_1ja_ib1YeggxuAO-1" target="CcdC_w_5SwDQPl0fzqGa-1" edge="1">
          <mxGeometry relative="1" as="geometry" />
        </mxCell>
        <mxCell id="nFB2l3n1pYC1xVAgFxaD-21" value="general parameters" style="edgeLabel;html=1;align=center;verticalAlign=middle;resizable=0;points=[];" parent="nFB2l3n1pYC1xVAgFxaD-20" vertex="1" connectable="0">
          <mxGeometry x="-0.0217" relative="1" as="geometry">
            <mxPoint x="89" y="-10" as="offset" />
          </mxGeometry>
        </mxCell>
        <mxCell id="nFB2l3n1pYC1xVAgFxaD-23" style="edgeStyle=orthogonalEdgeStyle;rounded=0;orthogonalLoop=1;jettySize=auto;html=1;exitX=0.5;exitY=1;exitDx=0;exitDy=0;entryX=0;entryY=0.5;entryDx=0;entryDy=0;" parent="1" source="ebzc_1ja_ib1YeggxuAO-1" target="CcdC_w_5SwDQPl0fzqGa-2" edge="1">
          <mxGeometry relative="1" as="geometry" />
        </mxCell>
        <mxCell id="nFB2l3n1pYC1xVAgFxaD-24" value="source parameters, Fs (general)" style="edgeLabel;html=1;align=center;verticalAlign=middle;resizable=0;points=[];" parent="nFB2l3n1pYC1xVAgFxaD-23" vertex="1" connectable="0">
          <mxGeometry x="0.4238" relative="1" as="geometry">
            <mxPoint x="45" y="-10" as="offset" />
          </mxGeometry>
        </mxCell>
        <mxCell id="nFB2l3n1pYC1xVAgFxaD-25" style="edgeStyle=orthogonalEdgeStyle;rounded=0;orthogonalLoop=1;jettySize=auto;html=1;exitX=0.5;exitY=1;exitDx=0;exitDy=0;entryX=0.5;entryY=1;entryDx=0;entryDy=0;" parent="1" source="ebzc_1ja_ib1YeggxuAO-1" target="CcdC_w_5SwDQPl0fzqGa-3" edge="1">
          <mxGeometry relative="1" as="geometry">
            <Array as="points">
              <mxPoint x="160" y="500" />
              <mxPoint x="680" y="500" />
            </Array>
          </mxGeometry>
        </mxCell>
        <mxCell id="nFB2l3n1pYC1xVAgFxaD-26" value="modulator parameters" style="edgeLabel;html=1;align=center;verticalAlign=middle;resizable=0;points=[];" parent="nFB2l3n1pYC1xVAgFxaD-25" vertex="1" connectable="0">
          <mxGeometry x="0.6719" y="1" relative="1" as="geometry">
            <mxPoint x="21" y="-9" as="offset" />
          </mxGeometry>
        </mxCell>
        <mxCell id="nFB2l3n1pYC1xVAgFxaD-27" style="edgeStyle=orthogonalEdgeStyle;rounded=0;orthogonalLoop=1;jettySize=auto;html=1;exitX=0.5;exitY=1;exitDx=0;exitDy=0;entryX=0.5;entryY=1;entryDx=0;entryDy=0;" parent="1" target="CcdC_w_5SwDQPl0fzqGa-4" edge="1">
          <mxGeometry relative="1" as="geometry">
            <mxPoint x="160" y="220" as="sourcePoint" />
            <mxPoint x="920" y="480.0000000000001" as="targetPoint" />
            <Array as="points">
              <mxPoint x="160" y="540" />
              <mxPoint x="920" y="540" />
            </Array>
          </mxGeometry>
        </mxCell>
        <mxCell id="nFB2l3n1pYC1xVAgFxaD-28" value="channel parameters, amplifier parameters, Fs (general), frequency (source)&amp;nbsp;" style="edgeLabel;html=1;align=center;verticalAlign=middle;resizable=0;points=[];" parent="nFB2l3n1pYC1xVAgFxaD-27" vertex="1" connectable="0">
          <mxGeometry x="0.6291" y="-2" relative="1" as="geometry">
            <mxPoint x="-65" y="-12" as="offset" />
          </mxGeometry>
        </mxCell>
        <mxCell id="nFB2l3n1pYC1xVAgFxaD-29" style="edgeStyle=orthogonalEdgeStyle;rounded=0;orthogonalLoop=1;jettySize=auto;html=1;exitX=0.5;exitY=1;exitDx=0;exitDy=0;entryX=0;entryY=0.5;entryDx=0;entryDy=0;" parent="1" source="ebzc_1ja_ib1YeggxuAO-1" target="CcdC_w_5SwDQPl0fzqGa-5" edge="1">
          <mxGeometry relative="1" as="geometry" />
        </mxCell>
        <mxCell id="nFB2l3n1pYC1xVAgFxaD-30" value="reciever parameters, general parameters" style="edgeLabel;html=1;align=center;verticalAlign=middle;resizable=0;points=[];" parent="nFB2l3n1pYC1xVAgFxaD-29" vertex="1" connectable="0">
          <mxGeometry x="0.6274" y="4" relative="1" as="geometry">
            <mxPoint x="-87" y="-6" as="offset" />
          </mxGeometry>
        </mxCell>
        <mxCell id="nFB2l3n1pYC1xVAgFxaD-35" style="edgeStyle=orthogonalEdgeStyle;rounded=0;orthogonalLoop=1;jettySize=auto;html=1;exitX=0.5;exitY=1;exitDx=0;exitDy=0;entryX=0;entryY=0.5;entryDx=0;entryDy=0;" parent="1" source="ebzc_1ja_ib1YeggxuAO-1" target="nFB2l3n1pYC1xVAgFxaD-15" edge="1">
          <mxGeometry relative="1" as="geometry" />
        </mxCell>
        <mxCell id="nFB2l3n1pYC1xVAgFxaD-36" value="general parameters" style="edgeLabel;html=1;align=center;verticalAlign=middle;resizable=0;points=[];" parent="nFB2l3n1pYC1xVAgFxaD-35" vertex="1" connectable="0">
          <mxGeometry x="0.6274" y="2" relative="1" as="geometry">
            <mxPoint x="113" y="12" as="offset" />
          </mxGeometry>
        </mxCell>
        <mxCell id="ebzc_1ja_ib1YeggxuAO-1" value="Window" style="rounded=0;whiteSpace=wrap;html=1;" parent="1" vertex="1">
          <mxGeometry x="80" y="120" width="160" height="80" as="geometry" />
        </mxCell>
        <mxCell id="nFB2l3n1pYC1xVAgFxaD-38" style="edgeStyle=orthogonalEdgeStyle;rounded=0;orthogonalLoop=1;jettySize=auto;html=1;exitX=0.75;exitY=1;exitDx=0;exitDy=0;entryX=0.25;entryY=0;entryDx=0;entryDy=0;" parent="1" source="CcdC_w_5SwDQPl0fzqGa-1" target="nFB2l3n1pYC1xVAgFxaD-37" edge="1">
          <mxGeometry relative="1" as="geometry">
            <Array as="points">
              <mxPoint x="480" y="300" />
              <mxPoint x="1240" y="300" />
            </Array>
          </mxGeometry>
        </mxCell>
        <mxCell id="nFB2l3n1pYC1xVAgFxaD-40" style="edgeStyle=orthogonalEdgeStyle;rounded=0;orthogonalLoop=1;jettySize=auto;html=1;exitX=0.75;exitY=1;exitDx=0;exitDy=0;entryX=0.5;entryY=0;entryDx=0;entryDy=0;" parent="1" source="CcdC_w_5SwDQPl0fzqGa-1" target="CcdC_w_5SwDQPl0fzqGa-3" edge="1">
          <mxGeometry relative="1" as="geometry">
            <Array as="points">
              <mxPoint x="480" y="300" />
              <mxPoint x="680" y="300" />
            </Array>
          </mxGeometry>
        </mxCell>
        <mxCell id="nFB2l3n1pYC1xVAgFxaD-41" value="modulation signal" style="edgeLabel;html=1;align=center;verticalAlign=middle;resizable=0;points=[];" parent="nFB2l3n1pYC1xVAgFxaD-40" vertex="1" connectable="0">
          <mxGeometry x="-0.3588" y="-1" relative="1" as="geometry">
            <mxPoint y="-11" as="offset" />
          </mxGeometry>
        </mxCell>
        <mxCell id="CcdC_w_5SwDQPl0fzqGa-1" value="modulation signal" style="rounded=0;whiteSpace=wrap;html=1;" parent="1" vertex="1">
          <mxGeometry x="390" y="240" width="120" height="40" as="geometry" />
        </mxCell>
        <mxCell id="nFB2l3n1pYC1xVAgFxaD-7" style="edgeStyle=orthogonalEdgeStyle;rounded=0;orthogonalLoop=1;jettySize=auto;html=1;exitX=1;exitY=0.5;exitDx=0;exitDy=0;entryX=0;entryY=0.5;entryDx=0;entryDy=0;" parent="1" source="CcdC_w_5SwDQPl0fzqGa-2" target="CcdC_w_5SwDQPl0fzqGa-3" edge="1">
          <mxGeometry relative="1" as="geometry">
            <mxPoint x="590" y="440" as="targetPoint" />
          </mxGeometry>
        </mxCell>
        <mxCell id="nFB2l3n1pYC1xVAgFxaD-8" value="carrier signal" style="edgeLabel;html=1;align=center;verticalAlign=middle;resizable=0;points=[];" parent="nFB2l3n1pYC1xVAgFxaD-7" vertex="1" connectable="0">
          <mxGeometry x="-0.3541" y="2" relative="1" as="geometry">
            <mxPoint x="24" y="-8" as="offset" />
          </mxGeometry>
        </mxCell>
        <mxCell id="nFB2l3n1pYC1xVAgFxaD-32" style="edgeStyle=orthogonalEdgeStyle;rounded=0;orthogonalLoop=1;jettySize=auto;html=1;exitX=1;exitY=0.5;exitDx=0;exitDy=0;entryX=0.5;entryY=1;entryDx=0;entryDy=0;" parent="1" source="CcdC_w_5SwDQPl0fzqGa-2" target="CcdC_w_5SwDQPl0fzqGa-5" edge="1">
          <mxGeometry relative="1" as="geometry">
            <Array as="points">
              <mxPoint x="530" y="440" />
              <mxPoint x="530" y="710" />
              <mxPoint x="680" y="710" />
            </Array>
          </mxGeometry>
        </mxCell>
        <mxCell id="nFB2l3n1pYC1xVAgFxaD-34" value="carrier signal" style="edgeLabel;html=1;align=center;verticalAlign=middle;resizable=0;points=[];" parent="nFB2l3n1pYC1xVAgFxaD-32" vertex="1" connectable="0">
          <mxGeometry x="0.6862" y="-4" relative="1" as="geometry">
            <mxPoint x="-37" y="-14" as="offset" />
          </mxGeometry>
        </mxCell>
        <mxCell id="nFB2l3n1pYC1xVAgFxaD-42" style="edgeStyle=orthogonalEdgeStyle;rounded=0;orthogonalLoop=1;jettySize=auto;html=1;exitX=1;exitY=0.5;exitDx=0;exitDy=0;entryX=0;entryY=0.25;entryDx=0;entryDy=0;" parent="1" source="CcdC_w_5SwDQPl0fzqGa-2" target="nFB2l3n1pYC1xVAgFxaD-37" edge="1">
          <mxGeometry relative="1" as="geometry">
            <Array as="points">
              <mxPoint x="530" y="440" />
              <mxPoint x="530" y="330" />
              <mxPoint x="1120" y="330" />
              <mxPoint x="1120" y="420" />
            </Array>
          </mxGeometry>
        </mxCell>
        <mxCell id="nFB2l3n1pYC1xVAgFxaD-43" value="carrier signal" style="edgeLabel;html=1;align=center;verticalAlign=middle;resizable=0;points=[];" parent="nFB2l3n1pYC1xVAgFxaD-42" vertex="1" connectable="0">
          <mxGeometry x="0.9221" y="1" relative="1" as="geometry">
            <mxPoint x="-6" y="-9" as="offset" />
          </mxGeometry>
        </mxCell>
        <mxCell id="CcdC_w_5SwDQPl0fzqGa-2" value="carrier signal" style="rounded=0;whiteSpace=wrap;html=1;" parent="1" vertex="1">
          <mxGeometry x="390" y="420" width="120" height="40" as="geometry" />
        </mxCell>
        <mxCell id="nFB2l3n1pYC1xVAgFxaD-9" style="edgeStyle=orthogonalEdgeStyle;rounded=0;orthogonalLoop=1;jettySize=auto;html=1;exitX=1;exitY=0.5;exitDx=0;exitDy=0;entryX=0;entryY=0.5;entryDx=0;entryDy=0;" parent="1" source="CcdC_w_5SwDQPl0fzqGa-3" target="CcdC_w_5SwDQPl0fzqGa-4" edge="1">
          <mxGeometry relative="1" as="geometry">
            <mxPoint x="820" y="440" as="targetPoint" />
          </mxGeometry>
        </mxCell>
        <mxCell id="nFB2l3n1pYC1xVAgFxaD-10" value="modulated signal" style="edgeLabel;html=1;align=center;verticalAlign=middle;resizable=0;points=[];" parent="nFB2l3n1pYC1xVAgFxaD-9" vertex="1" connectable="0">
          <mxGeometry x="0.4039" relative="1" as="geometry">
            <mxPoint x="-14" y="-10" as="offset" />
          </mxGeometry>
        </mxCell>
        <mxCell id="nFB2l3n1pYC1xVAgFxaD-44" style="edgeStyle=orthogonalEdgeStyle;rounded=0;orthogonalLoop=1;jettySize=auto;html=1;exitX=1;exitY=0.5;exitDx=0;exitDy=0;entryX=0;entryY=0.75;entryDx=0;entryDy=0;" parent="1" source="CcdC_w_5SwDQPl0fzqGa-3" target="nFB2l3n1pYC1xVAgFxaD-37" edge="1">
          <mxGeometry relative="1" as="geometry">
            <Array as="points">
              <mxPoint x="760" y="440" />
              <mxPoint x="760" y="360" />
              <mxPoint x="1080" y="360" />
              <mxPoint x="1080" y="460" />
            </Array>
          </mxGeometry>
        </mxCell>
        <mxCell id="nFB2l3n1pYC1xVAgFxaD-45" value="modulated signal" style="edgeLabel;html=1;align=center;verticalAlign=middle;resizable=0;points=[];" parent="nFB2l3n1pYC1xVAgFxaD-44" vertex="1" connectable="0">
          <mxGeometry x="0.7795" y="-2" relative="1" as="geometry">
            <mxPoint x="18" y="-12" as="offset" />
          </mxGeometry>
        </mxCell>
        <mxCell id="CcdC_w_5SwDQPl0fzqGa-3" value="modulate" style="rounded=0;whiteSpace=wrap;html=1;" parent="1" vertex="1">
          <mxGeometry x="620" y="420" width="120" height="40" as="geometry" />
        </mxCell>
        <mxCell id="nFB2l3n1pYC1xVAgFxaD-11" style="edgeStyle=orthogonalEdgeStyle;rounded=0;orthogonalLoop=1;jettySize=auto;html=1;exitX=1;exitY=0.5;exitDx=0;exitDy=0;entryX=0.5;entryY=0;entryDx=0;entryDy=0;" parent="1" source="CcdC_w_5SwDQPl0fzqGa-4" target="CcdC_w_5SwDQPl0fzqGa-5" edge="1">
          <mxGeometry relative="1" as="geometry">
            <mxPoint x="1000" y="600" as="targetPoint" />
            <Array as="points">
              <mxPoint x="1000" y="440" />
              <mxPoint x="1000" y="600" />
              <mxPoint x="680" y="600" />
            </Array>
          </mxGeometry>
        </mxCell>
        <mxCell id="nFB2l3n1pYC1xVAgFxaD-12" value="reciever signal" style="edgeLabel;html=1;align=center;verticalAlign=middle;resizable=0;points=[];" parent="nFB2l3n1pYC1xVAgFxaD-11" vertex="1" connectable="0">
          <mxGeometry x="-0.4783" y="-4" relative="1" as="geometry">
            <mxPoint x="-266" y="32" as="offset" />
          </mxGeometry>
        </mxCell>
        <mxCell id="nFB2l3n1pYC1xVAgFxaD-48" style="edgeStyle=orthogonalEdgeStyle;rounded=0;orthogonalLoop=1;jettySize=auto;html=1;exitX=1;exitY=0.5;exitDx=0;exitDy=0;entryX=0.25;entryY=1;entryDx=0;entryDy=0;" parent="1" source="CcdC_w_5SwDQPl0fzqGa-4" target="nFB2l3n1pYC1xVAgFxaD-37" edge="1">
          <mxGeometry relative="1" as="geometry">
            <Array as="points">
              <mxPoint x="1000" y="440" />
              <mxPoint x="1000" y="500" />
              <mxPoint x="1240" y="500" />
            </Array>
          </mxGeometry>
        </mxCell>
        <mxCell id="nFB2l3n1pYC1xVAgFxaD-49" value="reciever signal" style="edgeLabel;html=1;align=center;verticalAlign=middle;resizable=0;points=[];" parent="nFB2l3n1pYC1xVAgFxaD-48" vertex="1" connectable="0">
          <mxGeometry x="0.3819" y="-1" relative="1" as="geometry">
            <mxPoint y="-11" as="offset" />
          </mxGeometry>
        </mxCell>
        <mxCell id="CcdC_w_5SwDQPl0fzqGa-4" value="fiber transmition" style="rounded=0;whiteSpace=wrap;html=1;" parent="1" vertex="1">
          <mxGeometry x="860" y="420" width="120" height="40" as="geometry" />
        </mxCell>
        <mxCell id="nFB2l3n1pYC1xVAgFxaD-13" style="edgeStyle=orthogonalEdgeStyle;rounded=0;orthogonalLoop=1;jettySize=auto;html=1;exitX=1;exitY=0.5;exitDx=0;exitDy=0;entryX=0.5;entryY=0;entryDx=0;entryDy=0;" parent="1" source="CcdC_w_5SwDQPl0fzqGa-5" target="nFB2l3n1pYC1xVAgFxaD-15" edge="1">
          <mxGeometry relative="1" as="geometry">
            <mxPoint x="860" y="670" as="targetPoint" />
          </mxGeometry>
        </mxCell>
        <mxCell id="nFB2l3n1pYC1xVAgFxaD-14" value="detected signal" style="edgeLabel;html=1;align=center;verticalAlign=middle;resizable=0;points=[];" parent="nFB2l3n1pYC1xVAgFxaD-13" vertex="1" connectable="0">
          <mxGeometry x="-0.4137" y="-1" relative="1" as="geometry">
            <mxPoint x="16" y="-11" as="offset" />
          </mxGeometry>
        </mxCell>
        <mxCell id="nFB2l3n1pYC1xVAgFxaD-50" style="edgeStyle=orthogonalEdgeStyle;rounded=0;orthogonalLoop=1;jettySize=auto;html=1;exitX=1;exitY=0.5;exitDx=0;exitDy=0;entryX=0.5;entryY=1;entryDx=0;entryDy=0;" parent="1" source="CcdC_w_5SwDQPl0fzqGa-5" target="nFB2l3n1pYC1xVAgFxaD-37" edge="1">
          <mxGeometry relative="1" as="geometry" />
        </mxCell>
        <mxCell id="_ckx4ZXiXgK5sajqXDt3-1" value="detected signal" style="edgeLabel;html=1;align=center;verticalAlign=middle;resizable=0;points=[];" parent="nFB2l3n1pYC1xVAgFxaD-50" vertex="1" connectable="0">
          <mxGeometry x="0.7398" y="1" relative="1" as="geometry">
            <mxPoint x="1" y="-45" as="offset" />
          </mxGeometry>
        </mxCell>
        <mxCell id="CcdC_w_5SwDQPl0fzqGa-5" value="detection" style="rounded=0;whiteSpace=wrap;html=1;" parent="1" vertex="1">
          <mxGeometry x="620" y="650" width="120" height="40" as="geometry" />
        </mxCell>
        <mxCell id="nFB2l3n1pYC1xVAgFxaD-1" value="" style="endArrow=classic;html=1;rounded=0;exitX=1;exitY=0.5;exitDx=0;exitDy=0;entryX=0.5;entryY=0;entryDx=0;entryDy=0;" parent="1" source="CcdC_w_5SwDQPl0fzqGa-1" target="nFB2l3n1pYC1xVAgFxaD-37" edge="1">
          <mxGeometry width="50" height="50" relative="1" as="geometry">
            <mxPoint x="810" y="550" as="sourcePoint" />
            <mxPoint x="590" y="320" as="targetPoint" />
            <Array as="points">
              <mxPoint x="1280" y="260" />
            </Array>
          </mxGeometry>
        </mxCell>
        <mxCell id="nFB2l3n1pYC1xVAgFxaD-4" value="Tx symbols" style="edgeLabel;html=1;align=center;verticalAlign=middle;resizable=0;points=[];" parent="nFB2l3n1pYC1xVAgFxaD-1" vertex="1" connectable="0">
          <mxGeometry x="-0.3" y="-2" relative="1" as="geometry">
            <mxPoint x="362" y="-12" as="offset" />
          </mxGeometry>
        </mxCell>
        <mxCell id="nFB2l3n1pYC1xVAgFxaD-2" value="" style="endArrow=classic;html=1;rounded=0;exitX=0.75;exitY=0;exitDx=0;exitDy=0;entryX=0.75;entryY=0;entryDx=0;entryDy=0;" parent="1" source="CcdC_w_5SwDQPl0fzqGa-1" target="nFB2l3n1pYC1xVAgFxaD-37" edge="1">
          <mxGeometry width="50" height="50" relative="1" as="geometry">
            <mxPoint x="810" y="550" as="sourcePoint" />
            <mxPoint x="550" y="260" as="targetPoint" />
            <Array as="points">
              <mxPoint x="480" y="210" />
              <mxPoint x="1320" y="210" />
            </Array>
          </mxGeometry>
        </mxCell>
        <mxCell id="nFB2l3n1pYC1xVAgFxaD-5" value="Tx bits" style="edgeLabel;html=1;align=center;verticalAlign=middle;resizable=0;points=[];" parent="nFB2l3n1pYC1xVAgFxaD-2" vertex="1" connectable="0">
          <mxGeometry x="0.2" y="-1" relative="1" as="geometry">
            <mxPoint x="118" y="-11" as="offset" />
          </mxGeometry>
        </mxCell>
        <mxCell id="nFB2l3n1pYC1xVAgFxaD-16" style="edgeStyle=orthogonalEdgeStyle;rounded=0;orthogonalLoop=1;jettySize=auto;html=1;exitX=1;exitY=0.5;exitDx=0;exitDy=0;entryX=1;entryY=0.75;entryDx=0;entryDy=0;" parent="1" source="nFB2l3n1pYC1xVAgFxaD-15" target="nFB2l3n1pYC1xVAgFxaD-37" edge="1">
          <mxGeometry relative="1" as="geometry">
            <mxPoint x="960" y="740" as="targetPoint" />
          </mxGeometry>
        </mxCell>
        <mxCell id="nFB2l3n1pYC1xVAgFxaD-17" value="Rx bits" style="edgeLabel;html=1;align=center;verticalAlign=middle;resizable=0;points=[];" parent="nFB2l3n1pYC1xVAgFxaD-16" vertex="1" connectable="0">
          <mxGeometry x="0.3188" y="-1" relative="1" as="geometry">
            <mxPoint x="-1" y="-183" as="offset" />
          </mxGeometry>
        </mxCell>
        <mxCell id="nFB2l3n1pYC1xVAgFxaD-15" value="restore information" style="rounded=0;whiteSpace=wrap;html=1;" parent="1" vertex="1">
          <mxGeometry x="760" y="720" width="120" height="40" as="geometry" />
        </mxCell>
        <mxCell id="nFB2l3n1pYC1xVAgFxaD-18" value="" style="endArrow=classic;html=1;rounded=0;exitX=0.75;exitY=1;exitDx=0;exitDy=0;entryX=1;entryY=0.25;entryDx=0;entryDy=0;" parent="1" source="nFB2l3n1pYC1xVAgFxaD-15" target="nFB2l3n1pYC1xVAgFxaD-37" edge="1">
          <mxGeometry width="50" height="50" relative="1" as="geometry">
            <mxPoint x="610" y="710" as="sourcePoint" />
            <mxPoint x="850" y="800" as="targetPoint" />
            <Array as="points">
              <mxPoint x="850" y="800" />
              <mxPoint x="1440" y="800" />
              <mxPoint x="1440" y="420" />
            </Array>
          </mxGeometry>
        </mxCell>
        <mxCell id="nFB2l3n1pYC1xVAgFxaD-19" value="Rx symbols" style="edgeLabel;html=1;align=center;verticalAlign=middle;resizable=0;points=[];" parent="nFB2l3n1pYC1xVAgFxaD-18" vertex="1" connectable="0">
          <mxGeometry x="0.2" y="-2" relative="1" as="geometry">
            <mxPoint x="-32" y="-366" as="offset" />
          </mxGeometry>
        </mxCell>
        <mxCell id="nFB2l3n1pYC1xVAgFxaD-22" value="" style="endArrow=classic;html=1;rounded=0;entryX=0.5;entryY=0;entryDx=0;entryDy=0;" parent="1" target="CcdC_w_5SwDQPl0fzqGa-2" edge="1">
          <mxGeometry width="50" height="50" relative="1" as="geometry">
            <mxPoint x="480" y="280" as="sourcePoint" />
            <mxPoint x="460" y="460" as="targetPoint" />
            <Array as="points">
              <mxPoint x="480" y="300" />
              <mxPoint x="450" y="300" />
              <mxPoint x="450" y="380" />
            </Array>
          </mxGeometry>
        </mxCell>
        <mxCell id="nFB2l3n1pYC1xVAgFxaD-37" value="Simulation results" style="rounded=0;whiteSpace=wrap;html=1;" parent="1" vertex="1">
          <mxGeometry x="1200" y="400" width="160" height="80" as="geometry" />
        </mxCell>
        <mxCell id="nFB2l3n1pYC1xVAgFxaD-39" value="modulation signal" style="edgeLabel;html=1;align=center;verticalAlign=middle;resizable=0;points=[];" parent="1" vertex="1" connectable="0">
          <mxGeometry x="1190.0010526315791" y="290" as="geometry">
            <mxPoint x="-9" y="-5" as="offset" />
          </mxGeometry>
        </mxCell>
        <mxCell id="gxqZ4Ck6_-37C4suer9T-11" value="" style="edgeStyle=orthogonalEdgeStyle;rounded=0;orthogonalLoop=1;jettySize=auto;html=1;" parent="1" source="gxqZ4Ck6_-37C4suer9T-6" target="gxqZ4Ck6_-37C4suer9T-7" edge="1">
          <mxGeometry relative="1" as="geometry" />
        </mxCell>
        <mxCell id="gxqZ4Ck6_-37C4suer9T-12" value="carrier signal" style="edgeLabel;html=1;align=center;verticalAlign=middle;resizable=0;points=[];" parent="gxqZ4Ck6_-37C4suer9T-11" vertex="1" connectable="0">
          <mxGeometry x="0.0381" relative="1" as="geometry">
            <mxPoint y="-10" as="offset" />
          </mxGeometry>
        </mxCell>
        <mxCell id="gxqZ4Ck6_-37C4suer9T-6" value="Optical source" style="rounded=0;whiteSpace=wrap;html=1;" parent="1" vertex="1">
          <mxGeometry x="160" y="920" width="80" height="40" as="geometry" />
        </mxCell>
        <mxCell id="gxqZ4Ck6_-37C4suer9T-13" value="" style="edgeStyle=orthogonalEdgeStyle;rounded=0;orthogonalLoop=1;jettySize=auto;html=1;" parent="1" source="gxqZ4Ck6_-37C4suer9T-7" target="gxqZ4Ck6_-37C4suer9T-8" edge="1">
          <mxGeometry relative="1" as="geometry" />
        </mxCell>
        <mxCell id="gxqZ4Ck6_-37C4suer9T-14" value="modulated signal" style="edgeLabel;html=1;align=center;verticalAlign=middle;resizable=0;points=[];" parent="gxqZ4Ck6_-37C4suer9T-13" vertex="1" connectable="0">
          <mxGeometry x="-0.319" y="1" relative="1" as="geometry">
            <mxPoint x="20" y="-9" as="offset" />
          </mxGeometry>
        </mxCell>
        <mxCell id="gxqZ4Ck6_-37C4suer9T-7" value="Modulator" style="rounded=0;whiteSpace=wrap;html=1;" parent="1" vertex="1">
          <mxGeometry x="358.89" y="920" width="80" height="40" as="geometry" />
        </mxCell>
        <mxCell id="gxqZ4Ck6_-37C4suer9T-15" value="" style="edgeStyle=orthogonalEdgeStyle;rounded=0;orthogonalLoop=1;jettySize=auto;html=1;" parent="1" source="gxqZ4Ck6_-37C4suer9T-8" target="gxqZ4Ck6_-37C4suer9T-9" edge="1">
          <mxGeometry relative="1" as="geometry" />
        </mxCell>
        <mxCell id="gxqZ4Ck6_-37C4suer9T-8" value="Channel" style="rounded=0;whiteSpace=wrap;html=1;" parent="1" vertex="1">
          <mxGeometry x="560.22" y="920" width="80" height="40" as="geometry" />
        </mxCell>
        <mxCell id="gxqZ4Ck6_-37C4suer9T-17" style="edgeStyle=orthogonalEdgeStyle;rounded=0;orthogonalLoop=1;jettySize=auto;html=1;entryX=0;entryY=0.5;entryDx=0;entryDy=0;" parent="1" source="gxqZ4Ck6_-37C4suer9T-9" target="gxqZ4Ck6_-37C4suer9T-10" edge="1">
          <mxGeometry relative="1" as="geometry" />
        </mxCell>
        <mxCell id="gxqZ4Ck6_-37C4suer9T-18" value="reciever signal" style="edgeLabel;html=1;align=center;verticalAlign=middle;resizable=0;points=[];" parent="gxqZ4Ck6_-37C4suer9T-17" vertex="1" connectable="0">
          <mxGeometry x="-0.0685" y="1" relative="1" as="geometry">
            <mxPoint x="4" y="-9" as="offset" />
          </mxGeometry>
        </mxCell>
        <mxCell id="gxqZ4Ck6_-37C4suer9T-9" value="Pre amplifier" style="rounded=0;whiteSpace=wrap;html=1;" parent="1" vertex="1">
          <mxGeometry x="680" y="920" width="80" height="40" as="geometry" />
        </mxCell>
        <mxCell id="gxqZ4Ck6_-37C4suer9T-10" value="Receiver" style="rounded=0;whiteSpace=wrap;html=1;" parent="1" vertex="1">
          <mxGeometry x="880" y="920" width="80" height="40" as="geometry" />
        </mxCell>
        <mxCell id="gxqZ4Ck6_-37C4suer9T-19" value="" style="endArrow=classic;html=1;rounded=0;exitX=1;exitY=0.5;exitDx=0;exitDy=0;" parent="1" source="gxqZ4Ck6_-37C4suer9T-10" edge="1">
          <mxGeometry width="50" height="50" relative="1" as="geometry">
            <mxPoint x="610" y="1050" as="sourcePoint" />
            <mxPoint x="1080" y="940" as="targetPoint" />
          </mxGeometry>
        </mxCell>
        <mxCell id="gxqZ4Ck6_-37C4suer9T-20" value="detected signal" style="edgeLabel;html=1;align=center;verticalAlign=middle;resizable=0;points=[];" parent="gxqZ4Ck6_-37C4suer9T-19" vertex="1" connectable="0">
          <mxGeometry x="0.0796" y="1" relative="1" as="geometry">
            <mxPoint x="-4" y="-9" as="offset" />
          </mxGeometry>
        </mxCell>
        <mxCell id="gxqZ4Ck6_-37C4suer9T-21" value="" style="endArrow=classic;html=1;rounded=0;entryX=0.5;entryY=1;entryDx=0;entryDy=0;" parent="1" target="gxqZ4Ck6_-37C4suer9T-7" edge="1">
          <mxGeometry width="50" height="50" relative="1" as="geometry">
            <mxPoint x="399" y="1080" as="sourcePoint" />
            <mxPoint x="660" y="1000" as="targetPoint" />
          </mxGeometry>
        </mxCell>
        <mxCell id="gxqZ4Ck6_-37C4suer9T-22" value="modulation signal" style="edgeLabel;html=1;align=center;verticalAlign=middle;resizable=0;points=[];" parent="gxqZ4Ck6_-37C4suer9T-21" vertex="1" connectable="0">
          <mxGeometry x="-0.3704" relative="1" as="geometry">
            <mxPoint y="-22" as="offset" />
          </mxGeometry>
        </mxCell>
      </root>
    </mxGraphModel>
  </diagram>
  <diagram id="bBcR_hpsUJ-fD8cAWgNj" name="Stránka-3">
    <mxGraphModel dx="1050" dy="565" grid="1" gridSize="10" guides="1" tooltips="1" connect="1" arrows="1" fold="1" page="1" pageScale="1" pageWidth="1654" pageHeight="1169" math="0" shadow="0">
      <root>
        <mxCell id="0" />
        <mxCell id="1" parent="0" />
        <mxCell id="t3dprkcl8xiy5dFhmEr--1" value="Tx cons" style="rounded=0;whiteSpace=wrap;html=1;" parent="1" vertex="1">
          <mxGeometry x="1280" y="160" width="80" height="40" as="geometry" />
        </mxCell>
        <mxCell id="t3dprkcl8xiy5dFhmEr--2" value="Rx cons" style="rounded=0;whiteSpace=wrap;html=1;" parent="1" vertex="1">
          <mxGeometry x="1440" y="200" width="80" height="40" as="geometry" />
        </mxCell>
        <mxCell id="t3dprkcl8xiy5dFhmEr--3" value="Tx psd" style="rounded=0;whiteSpace=wrap;html=1;" parent="1" vertex="1">
          <mxGeometry x="1280" y="240" width="80" height="40" as="geometry" />
        </mxCell>
        <mxCell id="t3dprkcl8xiy5dFhmEr--4" value="Tx t signal" style="rounded=0;whiteSpace=wrap;html=1;" parent="1" vertex="1">
          <mxGeometry x="1280" y="320" width="80" height="40" as="geometry" />
        </mxCell>
        <mxCell id="t3dprkcl8xiy5dFhmEr--5" value="Rx t signal" style="rounded=0;whiteSpace=wrap;html=1;" parent="1" vertex="1">
          <mxGeometry x="1440" y="360" width="80" height="40" as="geometry" />
        </mxCell>
        <mxCell id="t3dprkcl8xiy5dFhmEr--6" value="Tx eye" style="rounded=0;whiteSpace=wrap;html=1;" parent="1" vertex="1">
          <mxGeometry x="1280" y="400" width="80" height="40" as="geometry" />
        </mxCell>
        <mxCell id="t3dprkcl8xiy5dFhmEr--7" value="Rx eye" style="rounded=0;whiteSpace=wrap;html=1;" parent="1" vertex="1">
          <mxGeometry x="1440" y="440" width="80" height="40" as="geometry" />
        </mxCell>
        <mxCell id="t3dprkcl8xiy5dFhmEr--8" value="BER" style="rounded=0;whiteSpace=wrap;html=1;" parent="1" vertex="1">
          <mxGeometry x="840" y="260" width="80" height="40" as="geometry" />
        </mxCell>
        <mxCell id="t3dprkcl8xiy5dFhmEr--9" value="Tx power" style="rounded=0;whiteSpace=wrap;html=1;" parent="1" vertex="1">
          <mxGeometry x="840" y="80" width="80" height="40" as="geometry" />
        </mxCell>
        <mxCell id="t3dprkcl8xiy5dFhmEr--10" value="Rx power" style="rounded=0;whiteSpace=wrap;html=1;" parent="1" vertex="1">
          <mxGeometry x="840" y="160" width="80" height="40" as="geometry" />
        </mxCell>
        <mxCell id="A_e5NoCMH6gVg4MdBKJ4-9" style="edgeStyle=orthogonalEdgeStyle;rounded=0;orthogonalLoop=1;jettySize=auto;html=1;exitX=0;exitY=0.5;exitDx=0;exitDy=0;entryX=1;entryY=0.5;entryDx=0;entryDy=0;" parent="1" source="A_e5NoCMH6gVg4MdBKJ4-1" target="t3dprkcl8xiy5dFhmEr--9" edge="1">
          <mxGeometry relative="1" as="geometry">
            <Array as="points">
              <mxPoint x="1010" y="280" />
              <mxPoint x="1010" y="100" />
            </Array>
          </mxGeometry>
        </mxCell>
        <mxCell id="A_e5NoCMH6gVg4MdBKJ4-15" value="modulated signal" style="edgeLabel;html=1;align=center;verticalAlign=middle;resizable=0;points=[];" parent="A_e5NoCMH6gVg4MdBKJ4-9" vertex="1" connectable="0">
          <mxGeometry x="0.7891" y="3" relative="1" as="geometry">
            <mxPoint x="18" y="-13" as="offset" />
          </mxGeometry>
        </mxCell>
        <mxCell id="A_e5NoCMH6gVg4MdBKJ4-11" style="edgeStyle=orthogonalEdgeStyle;rounded=0;orthogonalLoop=1;jettySize=auto;html=1;exitX=0;exitY=0.5;exitDx=0;exitDy=0;entryX=1;entryY=0.5;entryDx=0;entryDy=0;" parent="1" source="A_e5NoCMH6gVg4MdBKJ4-1" target="t3dprkcl8xiy5dFhmEr--10" edge="1">
          <mxGeometry relative="1" as="geometry">
            <Array as="points">
              <mxPoint x="1010" y="280" />
              <mxPoint x="1010" y="180" />
            </Array>
          </mxGeometry>
        </mxCell>
        <mxCell id="A_e5NoCMH6gVg4MdBKJ4-16" value="reciever signal" style="edgeLabel;html=1;align=center;verticalAlign=middle;resizable=0;points=[];" parent="A_e5NoCMH6gVg4MdBKJ4-11" vertex="1" connectable="0">
          <mxGeometry x="0.6167" y="1" relative="1" as="geometry">
            <mxPoint x="8" y="-11" as="offset" />
          </mxGeometry>
        </mxCell>
        <mxCell id="A_e5NoCMH6gVg4MdBKJ4-12" style="edgeStyle=orthogonalEdgeStyle;rounded=0;orthogonalLoop=1;jettySize=auto;html=1;exitX=0;exitY=0.5;exitDx=0;exitDy=0;entryX=1;entryY=0.5;entryDx=0;entryDy=0;" parent="1" source="A_e5NoCMH6gVg4MdBKJ4-1" target="t3dprkcl8xiy5dFhmEr--8" edge="1">
          <mxGeometry relative="1" as="geometry" />
        </mxCell>
        <mxCell id="A_e5NoCMH6gVg4MdBKJ4-17" value="Tx bits, Rx bits" style="edgeLabel;html=1;align=center;verticalAlign=middle;resizable=0;points=[];" parent="A_e5NoCMH6gVg4MdBKJ4-12" vertex="1" connectable="0">
          <mxGeometry x="0.157" y="1" relative="1" as="geometry">
            <mxPoint y="-11" as="offset" />
          </mxGeometry>
        </mxCell>
        <mxCell id="A_e5NoCMH6gVg4MdBKJ4-13" style="edgeStyle=orthogonalEdgeStyle;rounded=0;orthogonalLoop=1;jettySize=auto;html=1;exitX=0;exitY=0.5;exitDx=0;exitDy=0;entryX=1;entryY=0.5;entryDx=0;entryDy=0;" parent="1" source="A_e5NoCMH6gVg4MdBKJ4-1" target="A_e5NoCMH6gVg4MdBKJ4-6" edge="1">
          <mxGeometry relative="1" as="geometry">
            <Array as="points">
              <mxPoint x="1010" y="280" />
              <mxPoint x="1010" y="380" />
            </Array>
          </mxGeometry>
        </mxCell>
        <mxCell id="A_e5NoCMH6gVg4MdBKJ4-14" style="edgeStyle=orthogonalEdgeStyle;rounded=0;orthogonalLoop=1;jettySize=auto;html=1;exitX=0;exitY=0.5;exitDx=0;exitDy=0;entryX=1;entryY=0.5;entryDx=0;entryDy=0;" parent="1" source="A_e5NoCMH6gVg4MdBKJ4-1" target="A_e5NoCMH6gVg4MdBKJ4-7" edge="1">
          <mxGeometry relative="1" as="geometry">
            <Array as="points">
              <mxPoint x="1010" y="280" />
              <mxPoint x="1010" y="460" />
            </Array>
          </mxGeometry>
        </mxCell>
        <mxCell id="A_e5NoCMH6gVg4MdBKJ4-19" style="edgeStyle=orthogonalEdgeStyle;rounded=0;orthogonalLoop=1;jettySize=auto;html=1;exitX=1;exitY=0.5;exitDx=0;exitDy=0;entryX=0;entryY=0.5;entryDx=0;entryDy=0;" parent="1" source="A_e5NoCMH6gVg4MdBKJ4-1" target="A_e5NoCMH6gVg4MdBKJ4-2" edge="1">
          <mxGeometry relative="1" as="geometry">
            <Array as="points">
              <mxPoint x="1180" y="280" />
              <mxPoint x="1180" y="100" />
            </Array>
          </mxGeometry>
        </mxCell>
        <mxCell id="A_e5NoCMH6gVg4MdBKJ4-20" value="modulation signal" style="edgeLabel;html=1;align=center;verticalAlign=middle;resizable=0;points=[];" parent="A_e5NoCMH6gVg4MdBKJ4-19" vertex="1" connectable="0">
          <mxGeometry x="0.6635" y="-1" relative="1" as="geometry">
            <mxPoint y="-11" as="offset" />
          </mxGeometry>
        </mxCell>
        <mxCell id="A_e5NoCMH6gVg4MdBKJ4-22" style="edgeStyle=orthogonalEdgeStyle;rounded=0;orthogonalLoop=1;jettySize=auto;html=1;exitX=1;exitY=0.5;exitDx=0;exitDy=0;entryX=0;entryY=0.5;entryDx=0;entryDy=0;" parent="1" source="A_e5NoCMH6gVg4MdBKJ4-1" target="t3dprkcl8xiy5dFhmEr--1" edge="1">
          <mxGeometry relative="1" as="geometry">
            <Array as="points">
              <mxPoint x="1180" y="280" />
              <mxPoint x="1180" y="180" />
            </Array>
          </mxGeometry>
        </mxCell>
        <mxCell id="A_e5NoCMH6gVg4MdBKJ4-23" value="Tx symbols" style="edgeLabel;html=1;align=center;verticalAlign=middle;resizable=0;points=[];" parent="A_e5NoCMH6gVg4MdBKJ4-22" vertex="1" connectable="0">
          <mxGeometry x="0.5986" y="1" relative="1" as="geometry">
            <mxPoint x="-6" y="-9" as="offset" />
          </mxGeometry>
        </mxCell>
        <mxCell id="A_e5NoCMH6gVg4MdBKJ4-24" style="edgeStyle=orthogonalEdgeStyle;rounded=0;orthogonalLoop=1;jettySize=auto;html=1;exitX=1;exitY=0.5;exitDx=0;exitDy=0;entryX=0;entryY=0.5;entryDx=0;entryDy=0;" parent="1" source="A_e5NoCMH6gVg4MdBKJ4-1" target="t3dprkcl8xiy5dFhmEr--3" edge="1">
          <mxGeometry relative="1" as="geometry">
            <Array as="points">
              <mxPoint x="1180" y="280" />
              <mxPoint x="1180" y="260" />
            </Array>
          </mxGeometry>
        </mxCell>
        <mxCell id="A_e5NoCMH6gVg4MdBKJ4-25" value="modulated signal" style="edgeLabel;html=1;align=center;verticalAlign=middle;resizable=0;points=[];" parent="A_e5NoCMH6gVg4MdBKJ4-24" vertex="1" connectable="0">
          <mxGeometry x="0.3992" relative="1" as="geometry">
            <mxPoint x="-8" y="-10" as="offset" />
          </mxGeometry>
        </mxCell>
        <mxCell id="A_e5NoCMH6gVg4MdBKJ4-26" style="edgeStyle=orthogonalEdgeStyle;rounded=0;orthogonalLoop=1;jettySize=auto;html=1;exitX=1;exitY=0.5;exitDx=0;exitDy=0;entryX=0;entryY=0.5;entryDx=0;entryDy=0;" parent="1" source="A_e5NoCMH6gVg4MdBKJ4-1" target="t3dprkcl8xiy5dFhmEr--4" edge="1">
          <mxGeometry relative="1" as="geometry">
            <Array as="points">
              <mxPoint x="1180" y="280" />
              <mxPoint x="1180" y="340" />
            </Array>
          </mxGeometry>
        </mxCell>
        <mxCell id="A_e5NoCMH6gVg4MdBKJ4-27" value="modulated signal" style="edgeLabel;html=1;align=center;verticalAlign=middle;resizable=0;points=[];" parent="A_e5NoCMH6gVg4MdBKJ4-26" vertex="1" connectable="0">
          <mxGeometry x="0.5094" y="1" relative="1" as="geometry">
            <mxPoint x="-6" y="-9" as="offset" />
          </mxGeometry>
        </mxCell>
        <mxCell id="A_e5NoCMH6gVg4MdBKJ4-28" style="edgeStyle=orthogonalEdgeStyle;rounded=0;orthogonalLoop=1;jettySize=auto;html=1;exitX=1;exitY=0.5;exitDx=0;exitDy=0;entryX=0;entryY=0.5;entryDx=0;entryDy=0;" parent="1" source="A_e5NoCMH6gVg4MdBKJ4-1" target="t3dprkcl8xiy5dFhmEr--6" edge="1">
          <mxGeometry relative="1" as="geometry">
            <Array as="points">
              <mxPoint x="1180" y="280" />
              <mxPoint x="1180" y="420" />
            </Array>
          </mxGeometry>
        </mxCell>
        <mxCell id="A_e5NoCMH6gVg4MdBKJ4-29" value="modulation signal" style="edgeLabel;html=1;align=center;verticalAlign=middle;resizable=0;points=[];" parent="A_e5NoCMH6gVg4MdBKJ4-28" vertex="1" connectable="0">
          <mxGeometry x="0.6522" y="1" relative="1" as="geometry">
            <mxPoint y="-9" as="offset" />
          </mxGeometry>
        </mxCell>
        <mxCell id="A_e5NoCMH6gVg4MdBKJ4-30" style="edgeStyle=orthogonalEdgeStyle;rounded=0;orthogonalLoop=1;jettySize=auto;html=1;exitX=1;exitY=0.5;exitDx=0;exitDy=0;entryX=0;entryY=0.5;entryDx=0;entryDy=0;" parent="1" source="A_e5NoCMH6gVg4MdBKJ4-1" target="A_e5NoCMH6gVg4MdBKJ4-5" edge="1">
          <mxGeometry relative="1" as="geometry">
            <Array as="points">
              <mxPoint x="1180" y="280" />
              <mxPoint x="1180" y="140" />
            </Array>
          </mxGeometry>
        </mxCell>
        <mxCell id="A_e5NoCMH6gVg4MdBKJ4-31" value="detected signal" style="edgeLabel;html=1;align=center;verticalAlign=middle;resizable=0;points=[];" parent="A_e5NoCMH6gVg4MdBKJ4-30" vertex="1" connectable="0">
          <mxGeometry x="0.7596" relative="1" as="geometry">
            <mxPoint y="-10" as="offset" />
          </mxGeometry>
        </mxCell>
        <mxCell id="A_e5NoCMH6gVg4MdBKJ4-32" style="edgeStyle=orthogonalEdgeStyle;rounded=0;orthogonalLoop=1;jettySize=auto;html=1;exitX=1;exitY=0.5;exitDx=0;exitDy=0;entryX=0;entryY=0.5;entryDx=0;entryDy=0;" parent="1" source="A_e5NoCMH6gVg4MdBKJ4-1" target="t3dprkcl8xiy5dFhmEr--2" edge="1">
          <mxGeometry relative="1" as="geometry">
            <Array as="points">
              <mxPoint x="1180" y="280" />
              <mxPoint x="1180" y="220" />
            </Array>
          </mxGeometry>
        </mxCell>
        <mxCell id="A_e5NoCMH6gVg4MdBKJ4-33" value="Rx symbols" style="edgeLabel;html=1;align=center;verticalAlign=middle;resizable=0;points=[];" parent="A_e5NoCMH6gVg4MdBKJ4-32" vertex="1" connectable="0">
          <mxGeometry x="0.7464" y="-4" relative="1" as="geometry">
            <mxPoint y="-14" as="offset" />
          </mxGeometry>
        </mxCell>
        <mxCell id="A_e5NoCMH6gVg4MdBKJ4-34" style="edgeStyle=orthogonalEdgeStyle;rounded=0;orthogonalLoop=1;jettySize=auto;html=1;exitX=1;exitY=0.5;exitDx=0;exitDy=0;entryX=0;entryY=0.5;entryDx=0;entryDy=0;" parent="1" source="A_e5NoCMH6gVg4MdBKJ4-1" target="A_e5NoCMH6gVg4MdBKJ4-4" edge="1">
          <mxGeometry relative="1" as="geometry">
            <Array as="points">
              <mxPoint x="1180" y="280" />
              <mxPoint x="1180" y="300" />
            </Array>
          </mxGeometry>
        </mxCell>
        <mxCell id="A_e5NoCMH6gVg4MdBKJ4-36" value="reciever signal" style="edgeLabel;html=1;align=center;verticalAlign=middle;resizable=0;points=[];" parent="A_e5NoCMH6gVg4MdBKJ4-34" vertex="1" connectable="0">
          <mxGeometry x="0.7547" y="-1" relative="1" as="geometry">
            <mxPoint x="-3" y="-11" as="offset" />
          </mxGeometry>
        </mxCell>
        <mxCell id="A_e5NoCMH6gVg4MdBKJ4-38" style="edgeStyle=orthogonalEdgeStyle;rounded=0;orthogonalLoop=1;jettySize=auto;html=1;exitX=1;exitY=0.5;exitDx=0;exitDy=0;entryX=0;entryY=0.5;entryDx=0;entryDy=0;" parent="1" source="A_e5NoCMH6gVg4MdBKJ4-1" target="t3dprkcl8xiy5dFhmEr--5" edge="1">
          <mxGeometry relative="1" as="geometry">
            <Array as="points">
              <mxPoint x="1180" y="280" />
              <mxPoint x="1180" y="380" />
            </Array>
          </mxGeometry>
        </mxCell>
        <mxCell id="A_e5NoCMH6gVg4MdBKJ4-39" value="reciever signal" style="edgeLabel;html=1;align=center;verticalAlign=middle;resizable=0;points=[];" parent="A_e5NoCMH6gVg4MdBKJ4-38" vertex="1" connectable="0">
          <mxGeometry x="0.7731" y="-1" relative="1" as="geometry">
            <mxPoint y="-11" as="offset" />
          </mxGeometry>
        </mxCell>
        <mxCell id="A_e5NoCMH6gVg4MdBKJ4-41" style="edgeStyle=orthogonalEdgeStyle;rounded=0;orthogonalLoop=1;jettySize=auto;html=1;exitX=1;exitY=0.5;exitDx=0;exitDy=0;entryX=0;entryY=0.5;entryDx=0;entryDy=0;" parent="1" source="A_e5NoCMH6gVg4MdBKJ4-1" target="t3dprkcl8xiy5dFhmEr--7" edge="1">
          <mxGeometry relative="1" as="geometry">
            <Array as="points">
              <mxPoint x="1180" y="280" />
              <mxPoint x="1180" y="460" />
            </Array>
          </mxGeometry>
        </mxCell>
        <mxCell id="A_e5NoCMH6gVg4MdBKJ4-42" value="detected signal" style="edgeLabel;html=1;align=center;verticalAlign=middle;resizable=0;points=[];" parent="A_e5NoCMH6gVg4MdBKJ4-41" vertex="1" connectable="0">
          <mxGeometry x="0.7851" y="-1" relative="1" as="geometry">
            <mxPoint x="9" y="-11" as="offset" />
          </mxGeometry>
        </mxCell>
        <mxCell id="A_e5NoCMH6gVg4MdBKJ4-1" value="Simulation results" style="rounded=0;whiteSpace=wrap;html=1;" parent="1" vertex="1">
          <mxGeometry x="1040" y="80" width="120" height="400" as="geometry" />
        </mxCell>
        <mxCell id="A_e5NoCMH6gVg4MdBKJ4-2" value="modulation signal" style="rounded=0;whiteSpace=wrap;html=1;" parent="1" vertex="1">
          <mxGeometry x="1280" y="80" width="80" height="40" as="geometry" />
        </mxCell>
        <mxCell id="A_e5NoCMH6gVg4MdBKJ4-4" value="Rx psd" style="rounded=0;whiteSpace=wrap;html=1;" parent="1" vertex="1">
          <mxGeometry x="1440" y="280" width="80" height="40" as="geometry" />
        </mxCell>
        <mxCell id="A_e5NoCMH6gVg4MdBKJ4-5" value="detected signal" style="rounded=0;whiteSpace=wrap;html=1;" parent="1" vertex="1">
          <mxGeometry x="1440" y="120" width="80" height="40" as="geometry" />
        </mxCell>
        <mxCell id="A_e5NoCMH6gVg4MdBKJ4-6" value="SER" style="rounded=0;whiteSpace=wrap;html=1;" parent="1" vertex="1">
          <mxGeometry x="840" y="360" width="80" height="40" as="geometry" />
        </mxCell>
        <mxCell id="A_e5NoCMH6gVg4MdBKJ4-7" value="SNR" style="rounded=0;whiteSpace=wrap;html=1;" parent="1" vertex="1">
          <mxGeometry x="840" y="440" width="80" height="40" as="geometry" />
        </mxCell>
      </root>
    </mxGraphModel>
  </diagram>
  <diagram id="NPMVlcaQ6uhyDm_u5oVq" name="general">
    <mxGraphModel dx="1050" dy="565" grid="0" gridSize="10" guides="1" tooltips="1" connect="1" arrows="1" fold="1" page="1" pageScale="1" pageWidth="1654" pageHeight="1169" math="0" shadow="0">
      <root>
        <mxCell id="0" />
        <mxCell id="1" parent="0" />
        <mxCell id="gH-fNg8Y5WqkCvutB-ry-9" value="" style="edgeStyle=orthogonalEdgeStyle;rounded=0;orthogonalLoop=1;jettySize=auto;html=1;" edge="1" parent="1" source="gH-fNg8Y5WqkCvutB-ry-1" target="gH-fNg8Y5WqkCvutB-ry-2">
          <mxGeometry relative="1" as="geometry" />
        </mxCell>
        <mxCell id="gH-fNg8Y5WqkCvutB-ry-1" value="&lt;b&gt;&lt;font style=&quot;font-size: 18px;&quot; face=&quot;Times New Roman&quot;&gt;Start&lt;/font&gt;&lt;/b&gt;" style="ellipse;whiteSpace=wrap;html=1;strokeWidth=2;" vertex="1" parent="1">
          <mxGeometry x="280" y="120" width="160" height="80" as="geometry" />
        </mxCell>
        <mxCell id="gH-fNg8Y5WqkCvutB-ry-10" value="" style="edgeStyle=orthogonalEdgeStyle;rounded=0;orthogonalLoop=1;jettySize=auto;html=1;" edge="1" parent="1" source="gH-fNg8Y5WqkCvutB-ry-2" target="gH-fNg8Y5WqkCvutB-ry-3">
          <mxGeometry relative="1" as="geometry" />
        </mxCell>
        <mxCell id="gH-fNg8Y5WqkCvutB-ry-2" value="&lt;font style=&quot;font-size: 18px;&quot; face=&quot;Times New Roman&quot;&gt;Generování&lt;/font&gt;&lt;div style=&quot;font-size: 18px;&quot;&gt;&lt;font style=&quot;font-size: 18px;&quot; face=&quot;Kq_Gz_cV2PEVH6SMrxnT&quot;&gt;modulačního&lt;/font&gt;&lt;div style=&quot;&quot;&gt;&lt;font style=&quot;font-size: 18px;&quot; face=&quot;Kq_Gz_cV2PEVH6SMrxnT&quot;&gt;signálu&lt;/font&gt;&lt;/div&gt;&lt;/div&gt;" style="rounded=0;whiteSpace=wrap;html=1;" vertex="1" parent="1">
          <mxGeometry x="280" y="280" width="160" height="80" as="geometry" />
        </mxCell>
        <mxCell id="gH-fNg8Y5WqkCvutB-ry-11" value="" style="edgeStyle=orthogonalEdgeStyle;rounded=0;orthogonalLoop=1;jettySize=auto;html=1;" edge="1" parent="1" source="gH-fNg8Y5WqkCvutB-ry-3" target="gH-fNg8Y5WqkCvutB-ry-4">
          <mxGeometry relative="1" as="geometry" />
        </mxCell>
        <mxCell id="gH-fNg8Y5WqkCvutB-ry-3" value="&lt;font face=&quot;Times New Roman&quot;&gt;&lt;span style=&quot;font-size: 18px;&quot;&gt;Generování&lt;/span&gt;&lt;/font&gt;&lt;div&gt;&lt;font face=&quot;Times New Roman&quot;&gt;&lt;span style=&quot;font-size: 18px;&quot;&gt;nosného&lt;/span&gt;&lt;/font&gt;&lt;/div&gt;&lt;div&gt;&lt;font face=&quot;Times New Roman&quot;&gt;&lt;span style=&quot;font-size: 18px;&quot;&gt;signálu&lt;/span&gt;&lt;/font&gt;&lt;/div&gt;" style="rounded=0;whiteSpace=wrap;html=1;" vertex="1" parent="1">
          <mxGeometry x="520" y="280" width="160" height="80" as="geometry" />
        </mxCell>
        <mxCell id="gH-fNg8Y5WqkCvutB-ry-13" style="edgeStyle=orthogonalEdgeStyle;rounded=0;orthogonalLoop=1;jettySize=auto;html=1;exitX=1;exitY=0.5;exitDx=0;exitDy=0;" edge="1" parent="1" source="gH-fNg8Y5WqkCvutB-ry-4" target="gH-fNg8Y5WqkCvutB-ry-5">
          <mxGeometry relative="1" as="geometry" />
        </mxCell>
        <mxCell id="gH-fNg8Y5WqkCvutB-ry-4" value="&lt;font face=&quot;Times New Roman&quot;&gt;&lt;span style=&quot;font-size: 18px;&quot;&gt;Modulace&lt;/span&gt;&lt;/font&gt;&lt;div&gt;&lt;font face=&quot;Times New Roman&quot;&gt;&lt;span style=&quot;font-size: 18px;&quot;&gt;signálu&lt;/span&gt;&lt;/font&gt;&lt;/div&gt;" style="rounded=0;whiteSpace=wrap;html=1;" vertex="1" parent="1">
          <mxGeometry x="760" y="280" width="160" height="80" as="geometry" />
        </mxCell>
        <mxCell id="gH-fNg8Y5WqkCvutB-ry-14" value="" style="edgeStyle=orthogonalEdgeStyle;rounded=0;orthogonalLoop=1;jettySize=auto;html=1;" edge="1" parent="1" source="gH-fNg8Y5WqkCvutB-ry-5" target="gH-fNg8Y5WqkCvutB-ry-6">
          <mxGeometry relative="1" as="geometry" />
        </mxCell>
        <mxCell id="gH-fNg8Y5WqkCvutB-ry-5" value="&lt;font face=&quot;Times New Roman&quot;&gt;&lt;span style=&quot;font-size: 18px;&quot;&gt;Přenosový&lt;/span&gt;&lt;/font&gt;&lt;div&gt;&lt;font face=&quot;Times New Roman&quot;&gt;&lt;span style=&quot;font-size: 18px;&quot;&gt;kanál&lt;/span&gt;&lt;/font&gt;&lt;/div&gt;" style="rounded=0;whiteSpace=wrap;html=1;" vertex="1" parent="1">
          <mxGeometry x="280" y="440" width="160" height="80" as="geometry" />
        </mxCell>
        <mxCell id="gH-fNg8Y5WqkCvutB-ry-15" value="" style="edgeStyle=orthogonalEdgeStyle;rounded=0;orthogonalLoop=1;jettySize=auto;html=1;" edge="1" parent="1" source="gH-fNg8Y5WqkCvutB-ry-6" target="gH-fNg8Y5WqkCvutB-ry-7">
          <mxGeometry relative="1" as="geometry" />
        </mxCell>
        <mxCell id="gH-fNg8Y5WqkCvutB-ry-6" value="&lt;font face=&quot;Times New Roman&quot;&gt;&lt;span style=&quot;font-size: 18px;&quot;&gt;Detekce&lt;/span&gt;&lt;/font&gt;&lt;div&gt;&lt;font face=&quot;Times New Roman&quot;&gt;&lt;span style=&quot;font-size: 18px;&quot;&gt;signálu&lt;/span&gt;&lt;/font&gt;&lt;/div&gt;" style="rounded=0;whiteSpace=wrap;html=1;" vertex="1" parent="1">
          <mxGeometry x="520" y="440" width="160" height="80" as="geometry" />
        </mxCell>
        <mxCell id="gH-fNg8Y5WqkCvutB-ry-16" value="" style="edgeStyle=orthogonalEdgeStyle;rounded=0;orthogonalLoop=1;jettySize=auto;html=1;" edge="1" parent="1" source="gH-fNg8Y5WqkCvutB-ry-7" target="gH-fNg8Y5WqkCvutB-ry-8">
          <mxGeometry relative="1" as="geometry" />
        </mxCell>
        <mxCell id="gH-fNg8Y5WqkCvutB-ry-7" value="&lt;font face=&quot;Times New Roman&quot;&gt;&lt;span style=&quot;font-size: 18px;&quot;&gt;Obnovení&lt;/span&gt;&lt;/font&gt;&lt;div&gt;&lt;font face=&quot;Times New Roman&quot;&gt;&lt;span style=&quot;font-size: 18px;&quot;&gt;informace&lt;/span&gt;&lt;/font&gt;&lt;/div&gt;" style="rounded=0;whiteSpace=wrap;html=1;" vertex="1" parent="1">
          <mxGeometry x="760" y="440" width="160" height="80" as="geometry" />
        </mxCell>
        <mxCell id="gH-fNg8Y5WqkCvutB-ry-8" value="&lt;b&gt;&lt;font style=&quot;font-size: 18px;&quot; face=&quot;Times New Roman&quot;&gt;Konec&lt;/font&gt;&lt;/b&gt;" style="ellipse;whiteSpace=wrap;html=1;strokeWidth=2;" vertex="1" parent="1">
          <mxGeometry x="760" y="600" width="160" height="80" as="geometry" />
        </mxCell>
      </root>
    </mxGraphModel>
  </diagram>
  <diagram id="5MaiIF-dFkq1kNqGtc7u" name="Transmitter">
    <mxGraphModel dx="875" dy="471" grid="1" gridSize="10" guides="1" tooltips="1" connect="1" arrows="1" fold="1" page="1" pageScale="1" pageWidth="1654" pageHeight="1169" math="0" shadow="0">
      <root>
        <mxCell id="0" />
        <mxCell id="1" parent="0" />
        <mxCell id="5wXVUQzZrmZk0p9dFm_n-1" value="&lt;font face=&quot;Times New Roman&quot;&gt;Vstupní&lt;/font&gt;&lt;div&gt;&lt;font face=&quot;ygcQDW6cfmu9R4RYqDDF&quot;&gt;hodnoty&lt;/font&gt;&lt;/div&gt;" style="ellipse;whiteSpace=wrap;html=1;" vertex="1" parent="1">
          <mxGeometry x="120" y="120" width="80" height="40" as="geometry" />
        </mxCell>
      </root>
    </mxGraphModel>
  </diagram>
  <diagram id="xveWt_Fy_pXpElrA5nnn" name="Channel">
    <mxGraphModel dx="1050" dy="565" grid="1" gridSize="10" guides="1" tooltips="1" connect="1" arrows="1" fold="1" page="1" pageScale="1" pageWidth="1654" pageHeight="1169" math="0" shadow="0">
      <root>
        <mxCell id="0" />
        <mxCell id="1" parent="0" />
      </root>
    </mxGraphModel>
  </diagram>
  <diagram id="eBvIRvvQN3R_F8zMEWWC" name="Reciever">
    <mxGraphModel dx="1050" dy="565" grid="1" gridSize="10" guides="1" tooltips="1" connect="1" arrows="1" fold="1" page="1" pageScale="1" pageWidth="1654" pageHeight="1169" math="0" shadow="0">
      <root>
        <mxCell id="0" />
        <mxCell id="1" parent="0" />
      </root>
    </mxGraphModel>
  </diagram>
</mxfile>
